<?xml version="1.0" standalone="no"?>
<!DOCTYPE svg PUBLIC "-//W3C//DTD SVG 20010904//EN"
 "http://www.w3.org/TR/2001/REC-SVG-20010904/DTD/svg10.dtd">
<svg version="1.0" xmlns="http://www.w3.org/2000/svg"
 width="700.000000pt" height="700.000000pt" viewBox="0 0 700.000000 700.000000"
 preserveAspectRatio="xMidYMid meet">
<metadata>
Created by potrace 1.14, written by Peter Selinger 2001-2017
</metadata>
<g transform="translate(0.000000,700.000000) scale(0.100000,-0.100000)"
fill="#000000" stroke="none">
<path d="M0 3500 l0 -3500 3500 0 3500 0 0 3500 0 3500 -3500 0 -3500 0 0
-3500z m3700 2219 c516 -47 1011 -279 1375 -644 178 -179 304 -355 419 -586
263 -529 306 -1130 120 -1691 -109 -326 -294 -627 -537 -870 -592 -594 -1477
-808 -2264 -547 l-93 31 0 418 0 418 113 -57 c120 -61 258 -109 397 -138 128
-27 430 -24 563 5 140 31 236 65 362 127 402 200 687 570 787 1022 18 82 21
130 21 293 0 163 -3 211 -21 293 -100 452 -385 822 -787 1022 -125 62 -222 96
-362 127 -142 31 -445 31 -585 0 -303 -67 -527 -189 -744 -406 -215 -215 -335
-434 -406 -739 -21 -90 -22 -116 -27 -1031 l-6 -939 -95 94 c-186 184 -311
359 -430 604 -261 533 -300 1117 -113 1679 188 565 587 1023 1125 1290 369
184 782 262 1188 225z m-14 -1439 c147 -35 262 -98 372 -204 159 -152 242
-350 242 -576 0 -226 -83 -424 -242 -576 -157 -151 -339 -224 -558 -224 -450
0 -800 350 -800 800 0 375 247 691 609 780 105 26 270 26 377 0z"/>
</g>
</svg>
